<svg xmlns="http://www.w3.org/2000/svg" version="1.1" xmlns:xlink="http://www.w3.org/1999/xlink" xmlns:svgjs="http://svgjs.dev/svgjs" width="1920" height="1080" preserveAspectRatio="none" viewBox="0 0 1920 1080">
    <g mask="url(&quot;#SvgjsMask1034&quot;)" fill="none">
        <rect width="1920" height="1080" x="0" y="0" fill="#0e2a47"></rect>
        <path d="M0,647.388C118.302,633.354,197.551,527.611,299.968,466.759C407.154,403.073,550.539,387.42,616.063,281.347C683.176,172.703,673.474,31.802,645.643,-92.829C619.059,-211.875,550.15,-315.769,463.541,-401.661C381.369,-483.152,282.212,-560.431,166.718,-567.789C57.251,-574.763,-30.556,-487.742,-129.023,-439.411C-209.324,-399.996,-291.452,-369.98,-358.021,-310.227C-431.937,-243.88,-493.76,-167.834,-533.159,-76.657C-582.482,37.484,-648.354,160.747,-613.058,279.974C-577.042,401.635,-458.312,478.577,-349.48,543.801C-243.106,607.552,-123.152,661.997,0,647.388" fill="#091b2e"></path>
        <path d="M1920 1615.091C2025.166 1608.875 2137.012 1612.3519999999999 2223.067 1551.5810000000001 2307.83 1491.722 2352.157 1390.064 2380.146 1290.142 2405.42 1199.912 2385.334 1107.75 2373.418 1014.808 2361.306 920.3340000000001 2375.942 810.781 2309.889 742.159 2244.067 673.7760000000001 2128.319 705.471 2040.652 669.096 1937.501 626.296 1861.37 484.304 1752.946 511.068 1645.979 537.472 1642.689 694.423 1577.68 783.3779999999999 1519.843 862.519 1422.721 910.894 1392.5839999999998 1004.169 1360.068 1104.808 1371.7060000000001 1214.69 1406.001 1314.7359999999999 1442.607 1421.5230000000001 1495.534 1531.868 1593 1588.8220000000001 1689.365 1645.133 1808.5819999999999 1621.6770000000001 1920 1615.091" fill="#133960"></path>
    </g>
    <defs>
        <mask id="SvgjsMask1034">
            <rect width="1920" height="1080" fill="#ffffff"></rect>
        </mask>
    </defs>
</svg>